<?xml version="1.0" encoding="utf-8"?>
<!-- Generator: Adobe Illustrator 17.0.0, SVG Export Plug-In . SVG Version: 6.00 Build 0)  -->
<!DOCTYPE svg PUBLIC "-//W3C//DTD SVG 1.1//EN" "http://www.w3.org/Graphics/SVG/1.1/DTD/svg11.dtd">
<svg version="1.1" id="Слой_1" xmlns="http://www.w3.org/2000/svg" xmlns:xlink="http://www.w3.org/1999/xlink" x="0px" y="0px"
	 width="29px" height="32px" viewBox="0 0 29 32" enable-background="new 0 0 29 32" xml:space="preserve">
<path fill="#0C74BB" d="M0.007,14.757H0.53c0.287-0.37,0.546-1.23,0.611-2.271l0.065-1.05h2.956v3.321h0.694v1.366H4.008v-0.525
	H0.849v0.525H0.007V14.757z M1.478,14.757h1.781v-2.475H2.047l-0.037,0.56C1.922,13.814,1.668,14.498,1.478,14.757"/>
<polygon fill="#0C74BB" points="5.6,15.599 5.6,11.436 6.502,11.436 6.502,14.304 8.676,11.436 9.578,11.436 9.578,15.599
	8.676,15.599 8.676,12.731 6.502,15.599 "/>
<path fill="#0C74BB" d="M19.231,15.139c-0.412,0.361-1.008,0.532-1.577,0.532c-1.346,0-2.234-0.865-2.234-2.179
	c0-1.212,0.805-2.178,2.174-2.178c1.073,0,1.952,0.763,1.952,1.919c0,0.231-0.018,0.393-0.056,0.537h-3.104
	c0.079,0.708,0.615,1.11,1.351,1.11c0.523,0,0.971-0.185,1.226-0.407L19.231,15.139z M16.345,13.113h2.285
	c-0.014-0.597-0.412-1.008-1.078-1.008C16.853,12.105,16.442,12.521,16.345,13.113"/>
<path fill="#0C74BB" d="M20.262,11.436h0.902v4.163h-0.902V11.436z M22.758,13.421l1.897,2.179h-1.207l-1.762-2.114l1.628-2.049
	h1.156L22.758,13.421z"/>
<polygon fill="#0C74BB" points="25.145,11.436 28.938,11.436 28.938,12.338 27.495,12.338 27.495,15.599 26.593,15.599
	26.593,12.338 25.145,12.338 "/>
<polygon fill="#0C74BB" points="2.461,18.973 4.358,21.152 3.15,21.152 1.388,19.038 3.016,16.989 4.173,16.989 "/>
<rect x="0.003" y="16.989" fill="#0C74BB" width="0.902" height="4.163"/>
<path fill="#0C74BB" d="M13.859,20.717c-0.412,0.361-1.008,0.532-1.577,0.532c-1.346,0-2.234-0.865-2.234-2.178
	c0-1.212,0.805-2.178,2.174-2.178c1.073,0,1.952,0.763,1.952,1.919c0,0.231-0.018,0.393-0.056,0.537h-3.104
	c0.078,0.708,0.615,1.11,1.351,1.11c0.523,0,0.971-0.185,1.226-0.407L13.859,20.717z M10.972,18.691h2.285
	c-0.014-0.597-0.412-1.008-1.078-1.008C11.481,17.683,11.07,18.099,10.972,18.691"/>
<path fill="#0C74BB" d="M14.472,20.317h0.523c0.287-0.37,0.546-1.23,0.611-2.271l0.065-1.057h3.05v3.328h0.694v1.366h-0.846v-0.525
	h-3.253v0.525h-0.842V20.317z M15.943,20.317h1.875v-2.475h-1.306l-0.037,0.56C16.387,19.373,16.133,20.058,15.943,20.317"/>
<polygon fill="#0C74BB" points="20.262,21.152 20.262,16.989 21.164,16.989 21.164,19.857 23.338,16.989 24.24,16.989 24.24,21.152
	23.338,21.152 23.338,18.284 21.164,21.152 "/>
<polygon fill="#0C74BB" points="25.145,16.986 28.938,16.986 28.938,17.888 27.495,17.888 27.495,21.147 26.593,21.147
	26.593,17.888 25.145,17.888 "/>
<path fill="#0C74BB" d="M8.533,19.095c0.008,0.382-0.123,0.721-0.378,0.982c-0.262,0.267-0.632,0.421-1.015,0.421
	c-0.201,0-0.395-0.04-0.575-0.123c-0.328-0.152-0.61-0.381-0.61-0.923c0-0.739-0.018-1.04,0.306-1.344
	c0.419-0.393,0.932-0.492,1.503-0.267c0.482,0.19,0.74,0.587,0.769,1.18c0.001,0.017,0.001,0.035,0,0.052L8.533,19.095z
	 M9.322,18.531c-0.004-0.021-0.008-0.041-0.013-0.062c-0.189-0.841-0.747-1.271-1.333-1.429c-0.23-0.074-0.486-0.115-0.765-0.115
	c-0.448,0-0.86,0.134-1.191,0.373v-0.317H5.105v5.095h0.924V21.04c0.344,0.161,0.739,0.241,1.123,0.241
	c1.346,0,2.234-0.865,2.234-2.179C9.386,18.904,9.364,18.713,9.322,18.531"/>
<path fill="#0C74BB" d="M14.567,13.517c0.008,0.382-0.123,0.721-0.378,0.981c-0.262,0.267-0.632,0.421-1.015,0.421
	c-0.201,0-0.395-0.04-0.575-0.123c-0.328-0.152-0.61-0.381-0.61-0.923c0-0.739-0.018-1.04,0.306-1.344
	c0.419-0.393,0.932-0.492,1.503-0.267c0.482,0.19,0.74,0.587,0.769,1.18c0.001,0.017,0,0.035,0,0.052L14.567,13.517z M15.355,12.953
	c-0.004-0.021-0.008-0.041-0.012-0.062c-0.19-0.841-0.748-1.271-1.333-1.429c-0.23-0.074-0.485-0.115-0.765-0.115
	c-0.448,0-0.86,0.134-1.191,0.373v-0.251h-0.916v5.029h0.924v-1.035c0.344,0.161,0.739,0.241,1.123,0.241
	c1.346,0,2.234-0.865,2.234-2.179C15.419,13.327,15.397,13.135,15.355,12.953"/>
<polygon fill="#34BCED" points="13.858,8.158 16.022,6.283 16.022,7.539 13.855,9.341 11.693,7.533 11.693,6.283 "/>
<rect x="11.693" y="23.212" fill="#0C74BB" width="4.329" height="0.938"/>
<path fill="none" stroke="#939599" stroke-width="0.5" d="M2.636,11.428"/>
</svg>