<svg xmlns="http://www.w3.org/2000/svg" viewBox="0 0 145 48">
    <path fill="#fe4e50" fill-rule="evenodd"
          d="M0 24C0 10.745 11.287 0 25.215 0h94.57C133.71 0 145 10.742 145 24c0 13.255-11.287 24-25.215 24h-94.57C11.29 48 0 37.258 0 24zm41.29 11.813l-6.15-11.548c5.096-1.496 8.646-5.183 8.717-8.835.07-3.095-2.144-5.495-5.658-5.182-3.233.278-4.217 2.434-3.97 2.678.737.696 2.81 5.496-.809 7.583l-3.654-9.218s-.07-.209-.246-.209h-8.89c-.282 0-.212.244-.212.244l5.693 11.235c-4.99 1.426-8.89 5.078-9.101 8.66-.176 3.061 2.038 5.531 5.095 5.531 3.233 0 5.025-2.852 4.744-3.304-.668-.696-2.53-4.453.843-6.818l3.795 9.183s.036.174.211.174h9.488c.21 0 .106-.174.106-.174h-.002zm20.664-7.096c.316-2.4 1.546-10.33 1.546-10.33 0-.14-.105-.174-.105-.174h-7.028s-.211.035-.211.209c0 0-.14.939-.317 2.4-.843-1.948-2.389-3.305-4.814-3.305-4.603 0-7.625 4.244-8.222 9.009-.598 4.66 1.265 9.913 5.692 9.913 2.46 0 4.568-1.67 6.044-3.93.14 2.47 1.863 3.965 4.287 3.965 1.968 0 4.041-1.357 4.533-2.47.457-.939-2.073.244-1.405-5.287zM52.08 31.64c-1.722 0-2.355-2.087-2.039-4.696.317-2.608 1.476-4.73 3.198-4.73s2.39 2.122 2.073 4.73c-.316 2.609-1.51 4.696-3.232 4.696zm33.98-12.975c0-.104-.07-.14-.106-.14h.036c-5.482-1.112-10.437-1.043-15.286 0-.035 0-.14.036-.14.175 0 0-.668 5.6-1.723 8.313-2.003 5.008-4.181 5.252-4.252 5.913-.105.73.773 3.826 4.041 3.826 2.847 0 4.815-1.809 5.869-5.983.703-2.748 1.124-5.808 1.265-9.043h2.846c-.632 5.148-1.757 14.087-1.757 14.087 0 .174.14.174.14.174h6.783s.14 0 .14-.174c0 0 2.038-16.348 2.144-17.148zm9.242 3.86l.175-.695c14.338-1.565 12.018-12.035 4.92-11.826-8.223.209-12.756 10.26-12.756 17.844 0 4.8 2.882 8.765 8.188 8.765 5.447 0 9.944-3.826 9.523-9.461-.387-4.94-6.044-5.983-10.05-4.626zm3.83-7.964c.879 0 .914.487.879.939-.282 2.121-3.76 3.687-3.76 3.687.35-1.218 1.37-4.626 2.881-4.626zm-.14 14.26c-.036 1.01-.914 3.861-2.741 3.861-2.566 0-1.793-5.53-1.511-7.06 0 0 1.124-.348 2.038-.21 1.757.314 2.319 1.531 2.213 3.41zm27.374-.104c.316-2.4 1.546-10.33 1.546-10.33 0-.14-.106-.174-.106-.174h-7.028s-.21.035-.21.208c0 0-.141.94-.317 2.4-.843-1.947-2.39-3.304-4.814-3.304-4.603 0-7.625 4.244-8.223 9.009-.597 4.66 1.265 9.913 5.693 9.913 2.46 0 4.568-1.67 6.044-3.93.14 2.469 1.862 3.965 4.287 3.965 1.968 0 4.041-1.357 4.533-2.47.457-.94-2.073.244-1.405-5.287zm-9.875 2.922c-1.722 0-2.354-2.087-2.038-4.696.316-2.608 1.476-4.73 3.198-4.73s2.39 2.122 2.073 4.73c-.316 2.609-1.511 4.696-3.233 4.696z"/>
</svg>
