<?xml version="1.0" encoding="UTF-8"?>
<svg width="179px" height="38px" viewBox="0 0 179 38" version="1.1" xmlns="http://www.w3.org/2000/svg" xmlns:xlink="http://www.w3.org/1999/xlink">
    <!-- Generator: Sketch 48.2 (47327) - http://www.bohemiancoding.com/sketch -->
    <title>001_Лого Цветное</title>
    <desc>Created with Sketch.</desc>
    <defs>
        <path d="M7.13401305,0.00987745098 C8.37651783,0.0812203146 9.57526189,0.371779656 10.7302452,0.839583333 L11.0228883,0.938357843 L8.53542234,4.00036765 L8.38910082,3.95098039 C7.80381471,3.80281863 7.16975477,3.70404412 6.53569482,3.70404412 C6.34059946,3.70404412 6.09673025,3.70404412 5.90163488,3.75343137 L5.56021798,3.80281863 L6.7763969,0.00987745098 L7.13401305,0.00987745098 Z M12.2910082,15.6063725 L12.3885559,15.507598 C12.8762943,14.8161765 13.266485,14.0753676 13.5591281,13.2851716 L13.6566757,12.9394608 L16.680654,15.507598 L16.6318801,15.6557598 C16.0953678,16.8410539 15.3637602,17.8781863 14.4370572,18.8165441 L14.2419619,19.0140931 L12.2910082,15.6063725 Z M13.8029973,11.0627451 L13.8029973,10.9145833 C13.8029973,10.6676471 13.8029973,10.4207108 13.7542234,10.1737745 C13.7054496,9.58112745 13.5591281,8.98848039 13.3640327,8.44522059 L13.266485,8.14889706 L17.2659401,8.39583333 L17.3147139,8.5439951 C17.4122616,8.98848039 17.4610354,9.38357843 17.5098093,9.82806373 C17.6073569,10.6676471 17.5585831,11.5566176 17.4610354,12.396201 L17.4122616,12.6925245 L13.8029973,11.0627451 Z M12.339782,6.5685049 C12.1934605,6.37095588 12.047139,6.17340686 11.8520436,6.0252451 C11.4618529,5.5807598 10.9741144,5.23504902 10.486376,4.88933824 L10.193733,4.69178922 L13.5103542,2.41997549 L13.6566757,2.51875 C13.9980926,2.81507353 14.3395095,3.11139706 14.6321526,3.40772059 C15.2174387,4.0497549 15.753951,4.74117647 16.1929155,5.48198529 L16.3392371,5.72892157 L12.4861035,6.66727941 L12.339782,6.5685049 Z M0,2.12365196 L0.146321526,2.02487745 C1.21934605,1.28406863 2.38991826,0.740808824 3.65803815,0.395098039 L3.9506812,0.296323529 L3.85313351,4.24730392 L3.70681199,4.29669118 C2.92643052,4.64240196 2.24359673,5.08688725 1.60953678,5.63014706 L1.36566757,5.87708333 L0,2.12365196 Z" id="path-1"></path>
        <path d="M0.0975476839,4.98811275 C0.0975476839,2.12365196 2.0972752,0 4.97493188,0 C7.85258856,0 9.85231608,2.12365196 9.85231608,4.98811275 C9.85231608,7.85257353 7.85258856,9.97622549 4.97493188,9.97622549 C2.0972752,9.97622549 0.0975476839,7.85257353 0.0975476839,4.98811275 Z M8.14523161,4.98811275 C8.14523161,2.96323529 6.87711172,1.48161765 4.97493188,1.48161765 C3.0239782,1.48161765 1.80463215,2.96323529 1.80463215,4.98811275 C1.80463215,6.96360294 3.0239782,8.49460784 4.97493188,8.49460784 C6.87711172,8.44522059 8.14523161,6.96360294 8.14523161,4.98811275 Z M17.2659401,9.77867647 L17.2659401,4.14852941 L14.0956403,4.14852941 L14.0956403,9.82806373 L12.5836512,9.82806373 L12.5836512,2.81507353 L18.7779292,2.81507353 L18.7779292,9.82806373 L17.2659401,9.82806373 L17.2659401,9.77867647 Z M21.1190736,8.74154412 C21.7043597,8.74154412 22.0457766,8.05012255 22.2408719,6.22279412 L22.6798365,2.81507353 L28.0449591,2.81507353 L28.0449591,9.82806373 L26.53297,9.82806373 L26.53297,4.14852941 L24.0455041,4.14852941 L23.8016349,6.42034314 C23.5089918,8.93909314 22.6798365,10.0256127 21.1678474,10.0256127 L21.1678474,8.74154412 L21.1190736,8.74154412 Z M35.3610354,9.77867647 L35.3610354,9.03786765 C34.8245232,9.63051471 34.0441417,9.97622549 33.1174387,9.97622549 C31.9956403,9.97622549 30.7275204,9.18602941 30.7275204,7.65502451 C30.7275204,6.0252451 31.9956403,5.38321078 33.1174387,5.38321078 C34.0441417,5.38321078 34.873297,5.67953431 35.3610354,6.27218137 L35.3610354,5.23504902 C35.3610354,4.44485294 34.6782016,3.95098039 33.7514986,3.95098039 C32.9711172,3.95098039 32.2882834,4.24730392 31.7029973,4.83995098 L31.0689373,3.80281863 C31.8493188,3.01262255 32.8735695,2.66691176 33.9953678,2.66691176 C35.5073569,2.66691176 36.8730245,3.30894608 36.8730245,5.18566176 L36.8730245,9.82806373 L35.3610354,9.82806373 L35.3610354,9.77867647 Z M35.3610354,8.19828431 L35.3610354,7.16115196 C35.0196185,6.66727941 34.3855586,6.42034314 33.7027248,6.42034314 C32.8735695,6.42034314 32.2395095,6.91421569 32.2395095,7.70441176 C32.2395095,8.44522059 32.8735695,8.93909314 33.7027248,8.93909314 C34.3855586,8.93909314 35.0196185,8.69215686 35.3610354,8.19828431 Z M41.2138965,2.81507353 L41.2138965,4.69178922 C41.2138965,5.77830882 41.7504087,6.12401961 42.8722071,6.12401961 C43.5550409,6.12401961 44.0427793,6.0252451 44.3841962,5.87708333 L44.3841962,2.81507353 L45.8961853,2.81507353 L45.8961853,9.82806373 L44.3841962,9.82806373 L44.3841962,7.11176471 C43.9452316,7.35870098 43.213624,7.50686275 42.3844687,7.50686275 C40.433515,7.50686275 39.7019074,6.71666667 39.7019074,5.28443627 L39.7019074,2.86446078 L41.2138965,2.86446078 L41.2138965,2.81507353 Z M48.9689373,9.77867647 L48.9689373,2.81507353 L50.4809264,2.81507353 L50.4809264,7.50686275 L53.6512262,2.81507353 L55.1632153,2.81507353 L55.1632153,9.82806373 L53.6512262,9.82806373 L53.6512262,4.98811275 L50.4321526,9.82806373 L48.9689373,9.82806373 L48.9689373,9.77867647 Z M58.2847411,9.77867647 L58.2847411,2.81507353 L62.4305177,2.81507353 C63.7474114,2.81507353 64.4790191,3.60526961 64.4790191,4.59301471 C64.4790191,5.43259804 63.9425068,5.97585784 63.3084469,6.17340686 C64.0400545,6.37095588 64.6253406,7.06237745 64.6253406,7.90196078 C64.6253406,8.98848039 63.893733,9.77867647 62.5280654,9.77867647 L58.2847411,9.77867647 Z M62.9182561,4.83995098 C62.9182561,4.39546569 62.6256131,4.09914216 62.1378747,4.09914216 L59.7479564,4.09914216 L59.7479564,5.53137255 L62.1378747,5.53137255 C62.6256131,5.53137255 62.9182561,5.23504902 62.9182561,4.83995098 Z M63.0645777,7.70441176 C63.0645777,7.25992647 62.7719346,6.91421569 62.1866485,6.91421569 L59.7479564,6.91421569 L59.7479564,8.49460784 L62.1866485,8.49460784 C62.7231608,8.44522059 63.0645777,8.19828431 63.0645777,7.70441176 Z M71.8438692,9.77867647 L71.8438692,9.03786765 C71.3073569,9.63051471 70.5269755,9.97622549 69.6002725,9.97622549 C68.4784741,9.97622549 67.2103542,9.18602941 67.2103542,7.65502451 C67.2103542,6.0252451 68.4784741,5.38321078 69.6002725,5.38321078 C70.5269755,5.38321078 71.3561308,5.67953431 71.8438692,6.27218137 L71.8438692,5.23504902 C71.8438692,4.44485294 71.1610354,3.95098039 70.2343324,3.95098039 C69.453951,3.95098039 68.7711172,4.24730392 68.1858311,4.83995098 L67.5517711,3.80281863 C68.3321526,3.01262255 69.3564033,2.66691176 70.4782016,2.66691176 C71.9901907,2.66691176 73.3558583,3.30894608 73.3558583,5.18566176 L73.3558583,9.82806373 L71.8438692,9.82806373 L71.8438692,9.77867647 Z M71.8438692,8.19828431 L71.8438692,7.16115196 C71.5024523,6.66727941 70.8683924,6.42034314 70.1855586,6.42034314 C69.3564033,6.42034314 68.7223433,6.91421569 68.7223433,7.70441176 C68.7223433,8.44522059 69.3564033,8.93909314 70.1855586,8.93909314 C70.8683924,8.93909314 71.5024523,8.69215686 71.8438692,8.19828431 Z M76.4286104,9.77867647 L76.4286104,2.81507353 L77.9405995,2.81507353 L77.9405995,7.50686275 L81.1108992,2.81507353 L82.6228883,2.81507353 L82.6228883,9.82806373 L81.1108992,9.82806373 L81.1108992,4.98811275 L77.8918256,9.82806373 L76.4286104,9.82806373 L76.4286104,9.77867647 Z M79.5501362,2.07426471 C78.5258856,2.07426471 77.5991826,1.58039216 77.0138965,0.790196078 L77.6967302,0.19754902 C78.1356948,0.790196078 78.7209809,1.13590686 79.5501362,1.13590686 C80.3305177,1.13590686 80.9645777,0.790196078 81.3547684,0.19754902 L82.0376022,0.790196078 C81.4523161,1.58039216 80.5743869,2.07426471 79.5501362,2.07426471 Z M87.0125341,9.77867647 L87.0125341,4.14852941 L85.0128065,4.14852941 L85.0128065,2.81507353 L90.4754768,2.81507353 L90.4754768,4.14852941 L88.4757493,4.14852941 L88.4757493,9.82806373 L87.0125341,9.82806373 L87.0125341,9.77867647 Z M92.4264305,6.27218137 C92.4264305,4.24730392 93.8896458,2.61752451 95.9381471,2.61752451 C98.0354223,2.61752451 99.3523161,4.24730392 99.3523161,6.42034314 L99.3523161,6.76605392 L93.9871935,6.76605392 C94.0847411,7.80318627 94.8651226,8.69215686 96.1820163,8.69215686 C96.8648501,8.69215686 97.6452316,8.39583333 98.13297,7.90196078 L98.8158038,8.88970588 C98.13297,9.58112745 97.1087193,9.92683824 95.986921,9.92683824 C93.9871935,9.97622549 92.4264305,8.49460784 92.4264305,6.27218137 Z M95.9381471,3.85220588 C94.6700272,3.85220588 94.0847411,4.83995098 93.9871935,5.72892157 L97.8891008,5.72892157 C97.840327,4.88933824 97.3038147,3.85220588 95.9381471,3.85220588 Z M108.082834,2.81507353 L108.082834,4.69178922 C108.082834,5.77830882 108.619346,6.12401961 109.741144,6.12401961 C110.423978,6.12401961 110.911717,6.0252451 111.253134,5.87708333 L111.253134,2.81507353 L112.765123,2.81507353 L112.765123,9.82806373 L111.253134,9.82806373 L111.253134,7.11176471 C110.814169,7.35870098 110.082561,7.50686275 109.253406,7.50686275 C107.302452,7.50686275 106.570845,6.71666667 106.570845,5.28443627 L106.570845,2.86446078 L108.082834,2.86446078 L108.082834,2.81507353 Z M120.081199,9.77867647 L120.081199,9.03786765 C119.544687,9.63051471 118.764305,9.97622549 117.837602,9.97622549 C116.715804,9.97622549 115.447684,9.18602941 115.447684,7.65502451 C115.447684,6.0252451 116.715804,5.38321078 117.837602,5.38321078 C118.764305,5.38321078 119.59346,5.67953431 120.081199,6.27218137 L120.081199,5.23504902 C120.081199,4.44485294 119.398365,3.95098039 118.471662,3.95098039 C117.691281,3.95098039 117.008447,4.24730392 116.423161,4.83995098 L115.789101,3.80281863 C116.569482,3.01262255 117.593733,2.66691176 118.715531,2.66691176 C120.22752,2.66691176 121.593188,3.30894608 121.593188,5.18566176 L121.593188,9.82806373 L120.081199,9.82806373 L120.081199,9.77867647 Z M120.081199,8.19828431 L120.081199,7.16115196 C119.739782,6.66727941 119.105722,6.42034314 118.422888,6.42034314 C117.593733,6.42034314 116.959673,6.91421569 116.959673,7.70441176 C116.959673,8.44522059 117.593733,8.93909314 118.422888,8.93909314 C119.105722,8.93909314 119.739782,8.69215686 120.081199,8.19828431 Z M124.226975,6.27218137 C124.226975,4.14852941 125.690191,2.61752451 127.787466,2.61752451 C129.153134,2.61752451 129.933515,3.21017157 130.421253,3.85220588 L129.445777,4.79056373 C129.055586,4.24730392 128.519074,3.95098039 127.83624,3.95098039 C126.56812,3.95098039 125.738965,4.88933824 125.738965,6.27218137 C125.738965,7.65502451 126.56812,8.59338235 127.83624,8.59338235 C128.519074,8.59338235 129.055586,8.29705882 129.445777,7.75379902 L130.421253,8.69215686 C129.933515,9.38357843 129.10436,9.92683824 127.787466,9.92683824 C125.738965,9.97622549 124.226975,8.44522059 124.226975,6.27218137 Z M134.176839,9.77867647 L134.176839,4.14852941 L132.177112,4.14852941 L132.177112,2.81507353 L137.639782,2.81507353 L137.639782,4.14852941 L135.640054,4.14852941 L135.640054,9.82806373 L134.176839,9.82806373 L134.176839,9.77867647 Z M139.834605,9.77867647 L141.541689,7.16115196 C140.614986,6.96360294 139.932153,6.22279412 139.932153,4.98811275 C139.932153,3.80281863 140.712534,2.76568627 142.224523,2.76568627 L146.175204,2.76568627 L146.175204,9.77867647 L144.663215,9.77867647 L144.663215,7.25992647 L143.053678,7.25992647 L141.541689,9.77867647 L139.834605,9.77867647 Z M144.663215,5.92647059 L144.663215,4.14852941 L142.419619,4.14852941 C141.834332,4.14852941 141.492916,4.54362745 141.492916,5.0375 C141.492916,5.5807598 141.834332,5.92647059 142.419619,5.92647059 L144.663215,5.92647059 Z M155.491008,9.77867647 L155.491008,4.88933824 L153.442507,9.77867647 L152.857221,9.77867647 L150.759946,4.88933824 L150.759946,9.77867647 L149.247956,9.77867647 L149.247956,2.81507353 L151.19891,2.81507353 L153.10109,7.35870098 L155.00327,2.81507353 L157.002997,2.81507353 L157.002997,9.82806373 L155.491008,9.82806373 L155.491008,9.77867647 Z M160.124523,9.77867647 L160.124523,2.81507353 L161.636512,2.81507353 L161.636512,7.50686275 L164.806812,2.81507353 L166.318801,2.81507353 L166.318801,9.82806373 L164.806812,9.82806373 L164.806812,4.98811275 L161.587738,9.82806373 L160.124523,9.82806373 L160.124523,9.77867647 Z" id="path-3"></path>
        <path d="M15.2662125,8.19828431 C15.2662125,6.71666667 14.827248,5.63014706 13.9980926,4.88933824 C13.1201635,4.19791667 12.047139,3.80281863 10.7302452,3.80281863 L3.99945504,3.80281863 L3.99945504,17.6806373 L10.7302452,17.6806373 C11.9983651,17.6806373 13.0713896,17.3349265 13.9493188,16.5941176 C14.827248,15.9026961 15.2662125,14.7667892 15.2662125,13.1863971 L15.2662125,8.19828431 Z M10.7302452,0.296323529 C13.2177112,0.296323529 15.2174387,0.938357843 16.7294278,2.27181373 C18.2414169,3.60526961 19.0217984,5.53137255 19.0217984,8.14889706 L19.0217984,13.3345588 C19.0217984,14.6680147 18.826703,15.8533088 18.3877384,16.8410539 C17.9975477,17.828799 17.4122616,18.6683824 16.680654,19.3598039 C15.9490463,20.0512255 15.0711172,20.545098 14.0956403,20.8908088 C13.1201635,21.2365196 12.047139,21.3846814 10.9253406,21.3846814 L3.99945504,21.3846814 L3.99945504,36.0033088 C3.99945504,36.4477941 3.85313351,36.7935049 3.56049046,37.0404412 C3.26784741,37.3367647 2.82888283,37.4355392 2.14604905,37.4355392 C1.5119891,37.4355392 1.02425068,37.2873775 0.682833787,37.0404412 C0.341416894,36.7935049 0.195095368,36.4477941 0.195095368,36.0033088 L0.195095368,2.27181373 C0.195095368,1.82732843 0.341416894,1.38284314 0.634059946,0.938357843 C0.926702997,0.493872549 1.36566757,0.246936275 1.99972752,0.246936275 L10.7302452,0.246936275 L10.7302452,0.296323529 Z M25.6550409,12.6925245 L25.6550409,13.6308824 C25.6550409,14.914951 26.0940054,15.9520833 26.9231608,16.6928922 C27.7523161,17.433701 28.8741144,17.828799 30.239782,17.828799 L36.6291553,17.828799 C37.019346,17.828799 37.3607629,17.9275735 37.653406,18.1745098 C37.9948229,18.4214461 38.1411444,18.8659314 38.1411444,19.5079657 C38.1411444,20.1006127 37.9948229,20.5944853 37.653406,20.8908088 C37.3119891,21.1871324 36.9705722,21.3352941 36.6291553,21.3352941 L29.9959128,21.3352941 C28.8253406,21.3352941 27.7523161,21.1377451 26.7768392,20.7920343 C25.8013624,20.4463235 24.9722071,19.952451 24.2405995,19.3104167 C23.5089918,18.6683824 22.9724796,17.828799 22.533515,16.8904412 C22.0945504,15.9520833 21.899455,14.8161765 21.899455,13.5321078 L21.899455,8.44522059 C21.899455,7.16115196 22.1433243,6.0252451 22.5822888,4.98811275 C23.0212534,3.95098039 23.6065395,3.11139706 24.386921,2.41997549 C25.1185286,1.77794118 25.9964578,1.23468137 27.0207084,0.888970588 C28.0449591,0.543259804 29.1667575,0.345710784 30.3373297,0.345710784 L31.9468665,0.345710784 C33.0686649,0.345710784 34.0929155,0.543259804 35.0683924,0.888970588 C36.0438692,1.23468137 36.9217984,1.72855392 37.653406,2.41997549 C38.3850136,3.11139706 39.0190736,3.95098039 39.4580381,4.93872549 C39.8970027,5.97585784 40.1408719,7.11176471 40.1408719,8.39583333 L40.1408719,10.6676471 C40.1408719,11.0627451 39.9945504,11.5072304 39.7019074,11.9517157 C39.4092643,12.4455882 38.872752,12.6431373 38.0923706,12.6431373 L25.6550409,12.6431373 L25.6550409,12.6925245 Z M36.3365123,8.39583333 C36.3365123,6.86482843 35.8975477,5.72892157 35.0196185,5.0375 C34.1416894,4.34607843 33.0686649,4.00036765 31.7517711,4.00036765 L30.1422343,4.00036765 C28.9716621,4.00036765 27.8986376,4.34607843 27.0207084,5.08688725 C26.1427793,5.77830882 25.6550409,6.91421569 25.6550409,8.44522059 L25.6550409,9.63051471 L36.3365123,9.63051471 L36.3365123,8.39583333 Z M45.0182561,21.3352941 C44.3354223,21.3352941 43.8476839,21.1871324 43.6038147,20.8414216 C43.3111717,20.545098 43.213624,20.0512255 43.213624,19.4585784 L43.213624,2.12365196 C43.213624,1.43223039 43.3599455,0.987745098 43.6038147,0.691421569 C43.8964578,0.395098039 44.3354223,0.246936275 45.0182561,0.246936275 L54.5779292,0.246936275 C55.4070845,0.246936275 56.2362398,0.345710784 56.9678474,0.592647059 C57.699455,0.839583333 58.3822888,1.18529412 58.9188011,1.67916667 C59.4553134,2.17303922 59.8942779,2.76568627 60.2356948,3.45710784 C60.5771117,4.14852941 60.7234332,4.93872549 60.7234332,5.82769608 C60.7234332,6.51911765 60.5283379,7.25992647 60.1381471,8.0995098 C59.7479564,8.88970588 59.1626703,9.5317402 58.2847411,9.92683824 C59.2114441,10.272549 59.9918256,10.8651961 60.6258856,11.6553922 C61.2599455,12.4455882 61.5525886,13.4827206 61.5525886,14.7667892 C61.5525886,15.9026961 61.3574932,16.8410539 60.9673025,17.6806373 C60.5771117,18.5202206 60.0405995,19.1622549 59.4065395,19.754902 C58.7724796,20.2981618 58.0408719,20.6932598 57.1629428,20.9401961 C56.3337875,21.1871324 55.4558583,21.3352941 54.5779292,21.3352941 L45.0182561,21.3352941 Z M46.9692098,11.7541667 L46.9692098,17.6806373 L54.4316076,17.6806373 C55.4070845,17.6806373 56.2362398,17.433701 56.8702997,16.8904412 C57.5043597,16.3965686 57.8457766,15.6063725 57.8457766,14.6186275 C57.8457766,13.9765931 57.5531335,13.3345588 56.9678474,12.6925245 C56.3825613,12.0504902 55.5046322,11.7047794 54.3340599,11.7047794 L46.9692098,11.7047794 L46.9692098,11.7541667 Z M46.9692098,3.75343137 L46.9692098,8.44522059 L54.4803815,8.44522059 C55.1632153,8.44522059 55.7485014,8.19828431 56.2362398,7.75379902 C56.7239782,7.30931373 56.9678474,6.71666667 56.9678474,6.0252451 C56.9678474,5.33382353 56.7239782,4.79056373 56.1874659,4.39546569 C55.6509537,3.95098039 54.919346,3.75343137 54.0414169,3.75343137 L46.9692098,3.75343137 Z M105.49782,21.4340686 C104.86376,21.4340686 104.376022,21.2859069 104.083379,20.9895833 C103.790736,20.6932598 103.644414,20.347549 103.644414,20.0512255 L103.644414,3.95098039 L92.4752044,3.95098039 L92.4752044,20.0018382 C92.4752044,20.2981618 92.3288828,20.5944853 92.0362398,20.9401961 C91.7435967,21.2365196 91.2558583,21.4340686 90.5730245,21.4340686 C89.9389646,21.4340686 89.5,21.2859069 89.1585831,20.9401961 C88.8171662,20.6438725 88.6708447,20.2981618 88.6708447,19.952451 L88.6708447,2.32120098 C88.6708447,1.92610294 88.8171662,1.48161765 89.1098093,0.987745098 C89.4024523,0.493872549 89.9389646,0.246936275 90.719346,0.246936275 L105.253951,0.246936275 C106.034332,0.246936275 106.570845,0.493872549 106.863488,0.987745098 C107.156131,1.48161765 107.302452,1.92610294 107.302452,2.32120098 L107.302452,20.0018382 C107.302452,20.2981618 107.156131,20.5944853 106.863488,20.9401961 C106.668392,21.2859069 106.180654,21.4340686 105.49782,21.4340686 Z M128.275204,21.4340686 C127.592371,21.4340686 127.104632,21.2859069 126.811989,20.9895833 C126.519346,20.6932598 126.373025,20.1993873 126.373025,19.5079657 L126.373025,4.0497549 L118.959401,4.0497549 L117.93515,14.7667892 C117.837602,15.5569853 117.691281,16.3471814 117.544959,17.1867647 C117.398638,18.026348 117.105995,18.7671569 116.66703,19.4091912 C116.276839,20.0512255 115.691553,20.5944853 114.959946,21.0389706 C114.228338,21.4834559 113.301635,21.6810049 112.179837,21.6810049 L111.692098,21.6810049 C111.155586,21.6810049 110.765395,21.5328431 110.472752,21.2859069 C110.180109,20.9895833 110.033787,20.5944853 110.033787,19.952451 C110.033787,19.3598039 110.180109,18.9647059 110.521526,18.6683824 C110.862943,18.3720588 111.20436,18.2238971 111.643324,18.2238971 L112.033515,18.2238971 C112.813896,18.2238971 113.399183,17.9275735 113.691826,17.2855392 C113.984469,16.6435049 114.228338,15.7051471 114.374659,14.4704657 L115.496458,2.22242647 C115.545232,1.5310049 115.740327,1.03713235 115.984196,0.740808824 C116.276839,0.444485294 116.764578,0.296323529 117.447411,0.296323529 L128.275204,0.296323529 C128.958038,0.296323529 129.49455,0.444485294 129.787193,0.740808824 C130.079837,1.03713235 130.226158,1.5310049 130.226158,2.22242647 L130.226158,19.5079657 C130.226158,20.1993873 130.079837,20.6932598 129.73842,20.9895833 C129.445777,21.2859069 128.958038,21.4340686 128.275204,21.4340686 Z M149.784469,21.3352941 C148.66267,21.3352941 147.63842,21.1871324 146.711717,20.8414216 C145.73624,20.4957108 144.907084,20.0018382 144.175477,19.3598039 C143.443869,18.7177696 142.858583,17.8781863 142.419619,16.8904412 C141.980654,15.9026961 141.785559,14.7667892 141.785559,13.4333333 L141.785559,12.0998775 L138.468937,12.0998775 L138.468937,19.7055147 C138.468937,20.3969363 138.322616,20.8908088 138.029973,21.1377451 C137.73733,21.3846814 137.249591,21.5328431 136.615531,21.5328431 C136.322888,21.5328431 136.127793,21.4834559 135.932698,21.3846814 C135.152316,21.2859069 134.713351,20.6932598 134.713351,19.7055147 L134.713351,1.9754902 C134.713351,0.790196078 135.347411,0.19754902 136.615531,0.19754902 C136.761853,0.19754902 136.908174,0.19754902 137.005722,0.19754902 C137.10327,0.19754902 137.200817,0.246936275 137.298365,0.246936275 C138.078747,0.395098039 138.517711,0.938357843 138.517711,1.92610294 L138.517711,8.39583333 L141.834332,8.39583333 C141.883106,8.14889706 141.883106,7.90196078 141.883106,7.70441176 C141.883106,7.45747549 141.93188,7.25992647 141.980654,7.06237745 C142.224523,4.83995098 143.102452,3.16078431 144.565668,2.02487745 C146.077657,0.839583333 147.931063,0.296323529 150.125886,0.296323529 L150.906267,0.296323529 C152.076839,0.296323529 153.198638,0.493872549 154.222888,0.839583333 C155.247139,1.18529412 156.076294,1.67916667 156.807902,2.37058824 C157.53951,3.0620098 158.076022,3.90159314 158.514986,4.88933824 C158.905177,5.92647059 159.149046,7.06237745 159.149046,8.39583333 L159.149046,13.4827206 C159.149046,14.7667892 158.953951,15.9520833 158.514986,16.9398284 C158.076022,17.9275735 157.490736,18.7671569 156.759128,19.4091912 C156.02752,20.0512255 155.149591,20.545098 154.174114,20.8908088 C153.198638,21.2365196 152.125613,21.3846814 151.052589,21.3846814 L149.784469,21.3846814 L149.784469,21.3352941 Z M155.344687,8.29705882 C155.344687,6.71666667 154.905722,5.5807598 154.076567,4.83995098 C153.198638,4.14852941 152.125613,3.75343137 150.808719,3.75343137 L150.028338,3.75343137 C148.711444,3.75343137 147.63842,4.09914216 146.809264,4.83995098 C145.980109,5.5807598 145.541144,6.71666667 145.541144,8.24767157 L145.541144,13.4333333 C145.541144,14.9643382 145.980109,16.0508578 146.809264,16.7422794 C147.63842,17.433701 148.711444,17.7794118 150.028338,17.7794118 L150.613624,17.7794118 C151.979292,17.7794118 153.052316,17.433701 153.979019,16.7422794 C154.856948,16.0508578 155.344687,14.9643382 155.344687,13.3839461 L155.344687,8.29705882 Z M171.244959,21.3352941 C170.025613,21.3352941 168.903815,21.1871324 167.928338,20.8414216 C166.904087,20.4957108 166.074932,20.0018382 165.343324,19.3598039 C164.611717,18.7177696 164.026431,17.8781863 163.63624,16.8904412 C163.246049,15.9026961 163.050954,14.7667892 163.050954,13.4333333 L163.050954,8.34644608 C163.050954,7.06237745 163.246049,5.87708333 163.685014,4.88933824 C164.075204,3.90159314 164.66049,3.0620098 165.392098,2.37058824 C166.123706,1.67916667 167.001635,1.18529412 167.977112,0.839583333 C168.952589,0.493872549 170.025613,0.345710784 171.196185,0.345710784 L177.292916,0.345710784 C177.585559,0.345710784 177.926975,0.493872549 178.268392,0.839583333 C178.609809,1.13590686 178.756131,1.62977941 178.756131,2.22242647 C178.756131,2.86446078 178.609809,3.30894608 178.268392,3.60526961 C177.926975,3.90159314 177.634332,4.0497549 177.292916,4.0497549 L171.293733,4.0497549 C169.976839,4.0497549 168.903815,4.44485294 168.025886,5.18566176 C167.147956,5.92647059 166.757766,7.06237745 166.757766,8.49460784 L166.757766,13.3839461 C166.757766,14.8655637 167.19673,15.9520833 168.025886,16.6435049 C168.855041,17.3843137 169.976839,17.7300245 171.293733,17.7300245 L177.536785,17.7300245 C177.878202,17.7300245 178.219619,17.8781863 178.512262,18.1745098 C178.853678,18.4708333 179,18.9153186 179,19.5573529 C179,20.15 178.853678,20.6438725 178.512262,20.9401961 C178.170845,21.2365196 177.829428,21.3846814 177.488011,21.3846814 L171.244959,21.3846814 L171.244959,21.3352941 Z M74.5752044,21.5822304 C71.6,21.5822304 68.819891,20.3969363 66.7713896,18.2238971 C63.4059946,14.717402 62.8694823,9.33419118 65.4057221,5.23504902 L65.5520436,5.0375 C65.8446866,4.69178922 66.2836512,4.4942402 66.7226158,4.4942402 C67.0152589,4.4942402 67.3079019,4.59301471 67.5517711,4.74117647 C68.2833787,5.18566176 68.527248,6.12401961 68.0395095,6.86482843 C66.2348774,9.82806373 66.6250681,13.6308824 69.0149864,16.1496324 C70.4782016,17.6806373 72.4779292,18.5202206 74.5752044,18.5202206 C75.8433243,18.5202206 77.1114441,18.2238971 78.2332425,17.5818627 L78.3307902,17.5818627 C78.379564,17.5818627 78.379564,17.5324755 78.4283379,17.5324755 L78.4771117,17.5324755 C78.6234332,17.4830882 78.8185286,17.433701 79.013624,17.433701 C79.5989101,17.433701 80.0866485,17.7300245 80.3792916,18.2238971 C80.5743869,18.5696078 80.6231608,19.0140931 80.5256131,19.4091912 C80.4280654,19.754902 80.23297,20.0018382 79.940327,20.1993873 L79.7940054,20.2981618 C78.1356948,21.0883578 76.3798365,21.5822304 74.5752044,21.5822304 Z" id="path-5"></path>
    </defs>
    <g id="001_Логотипы" stroke="none" stroke-width="1" fill="none" fill-rule="evenodd" transform="translate(-541.000000, -122.000000)">
        <g id="001_Лого-Цветное" transform="translate(541.000000, 122.000000)">
            <g id="Group-6" transform="translate(68.039510, 0.000000)">
                <mask id="mask-2" fill="white">
                    <use xlink:href="#path-1"></use>
                </mask>
                <g id="Clip-5"></g>
                <polygon id="Fill-4" fill="#696969" mask="url(#mask-2)" points="-0.024386921 19.033848 17.5634605 19.033848 17.5634605 0.00987745098 -0.024386921 0.00987745098"></polygon>
            </g>
            <g id="Group-9" transform="translate(11.949591, 27.409926)">
                <mask id="mask-4" fill="white">
                    <use xlink:href="#path-3"></use>
                </mask>
                <g id="Clip-8"></g>
                <polygon id="Fill-7" fill="#696969" mask="url(#mask-4)" points="0.0829155313 10.0256127 166.333433 10.0256127 166.333433 -0.019754902 0.0829155313 -0.019754902"></polygon>
            </g>
            <g id="Group-3" transform="translate(0.000000, 0.246936)">
                <mask id="mask-6" fill="white">
                    <use xlink:href="#path-5"></use>
                </mask>
                <g id="Clip-2"></g>
                <polygon id="Fill-1" fill="#FF9E4D" mask="url(#mask-6)" points="0.180463215 37.4552941 179.014632 37.4552941 179.014632 0.177794118 0.180463215 0.177794118"></polygon>
            </g>
        </g>
    </g>
</svg>