<svg xmlns="http://www.w3.org/2000/svg" viewBox="0 0 184.83 39.47">
    <title>sovest</title>
    <path d="M20,5.44A15.23,15.23,0,0,0,4.56,20.51,15.21,15.21,0,0,0,20,35.56,15.06,15.06,0,1,0,20,5.44ZM7.23,20.51A12.74,12.74,0,1,1,20,33.24,12.75,12.75,0,0,1,7.23,20.51Zm52.62,0a8.82,8.82,0,0,0-9.05-9,8.82,8.82,0,0,0-9.1,9,8.8,8.8,0,0,0,9.1,8.95,8.8,8.8,0,0,0,9.05-8.95Zm13.48,8.65h5.2c3.36,0,6.36-1.28,6.36-4.79a3.91,3.91,0,0,0-3.07-4.2,3.87,3.87,0,0,0,2.55-3.86c0-3.34-2.85-4.45-5.69-4.45H73.33ZM57.08,20.51c0,3.86-2.6,6.57-6.28,6.57s-6.33-2.72-6.33-6.57,2.6-6.58,6.33-6.58,6.28,2.72,6.28,6.58Zm113.57,8.65h5.49c3.29,0,5.86-1.75,5.86-5.14s-2.75-5.22-5.86-5.22h-2.82v-7h-2.67Zm-71.15,0h9.92V26.74h-7.25V21.48h6.61V19h-6.61V14.28h7.25V11.85H99.51ZM14.3,20.51A6.22,6.22,0,0,0,20.84,27a7.19,7.19,0,0,0,4.92-1.9V28.2a10.59,10.59,0,0,1-5,1.26c-5.17,0-9.23-3.51-9.23-8.95s4.06-9,9.23-9a10.58,10.58,0,0,1,5,1.26v3.07A7.18,7.18,0,0,0,20.84,14a6.22,6.22,0,0,0-6.53,6.53Zm110.46,0A6.22,6.22,0,0,1,131.29,14a7.18,7.18,0,0,1,4.92,1.9V12.82a10.57,10.57,0,0,0-5-1.26c-5.17,0-9.23,3.51-9.23,9s4.06,8.95,9.23,8.95a10.59,10.59,0,0,0,5-1.26V25.13a7.19,7.19,0,0,1-4.92,1.9,6.22,6.22,0,0,1-6.53-6.52Zm34.44-6.23V11.85H146.63v2.42h4.95V29.16h2.67V14.28ZM76,21.45h2.7c2.33,0,3.41.82,3.41,2.57,0,2.45-2.25,2.72-4.18,2.72H76Zm97.32-.1h2.62c2.82,0,3.41,1.46,3.41,2.7,0,2.64-2.75,2.64-3.49,2.64h-2.55ZM76,14.28h2.65c1.78,0,3,.74,3,2.33,0,2-1.56,2.47-3,2.47H76Z"/>
</svg>
